<svg width="40" height="40" viewBox="0 0 40 40" fill="none" xmlns="http://www.w3.org/2000/svg">
<g clip-path="url(#clip0_717_2323)">
<path d="M28.1205 13.8549C27.947 13.4055 27.6812 12.9973 27.3403 12.6568C26.9994 12.3163 26.591 12.0509 26.1413 11.8779C25.5222 11.6485 24.8682 11.5273 24.208 11.5195C23.1101 11.4695 22.7809 11.457 19.9997 11.457C17.2184 11.457 16.8893 11.4695 15.7913 11.5195C15.1304 11.5271 14.4757 11.6483 13.8559 11.8779C13.4064 12.0514 12.9983 12.3172 12.6578 12.6581C12.3173 12.9989 12.0519 13.4074 11.8788 13.857C11.6495 14.4762 11.5283 15.1302 11.5205 15.7904C11.4705 16.8883 11.458 17.2174 11.458 19.9987C11.458 22.7799 11.4705 23.1091 11.5205 24.207C11.5281 24.8679 11.6493 25.5226 11.8788 26.1424C12.0524 26.5919 12.3182 27.0001 12.659 27.3406C12.9999 27.6811 13.4083 27.9465 13.858 28.1195C14.4772 28.3489 15.1311 28.4701 15.7913 28.4779C16.8893 28.5279 17.2184 28.5404 19.9997 28.5404C22.7809 28.5404 23.1101 28.5279 24.208 28.4779C24.8689 28.4703 25.5236 28.3491 26.1434 28.1195C26.5929 27.946 27.001 27.6802 27.3416 27.3393C27.6821 26.9985 27.9474 26.59 28.1205 26.1404C28.3498 25.5212 28.471 24.8672 28.4788 24.207C28.5288 23.1091 28.5413 22.7799 28.5413 19.9987C28.5413 17.2174 28.5288 16.8883 28.4788 15.7904C28.4713 15.1294 28.3501 14.4748 28.1205 13.8549ZM19.9997 25.3487C18.9415 25.3487 17.9072 25.0349 17.0274 24.4471C16.1476 23.8592 15.4618 23.0236 15.0569 22.0461C14.652 21.0685 14.546 19.9928 14.7525 18.955C14.9589 17.9172 15.4684 16.9639 16.2167 16.2157C16.9649 15.4675 17.9181 14.9579 18.9559 14.7515C19.9937 14.5451 21.0694 14.651 22.047 15.0559C23.0246 15.4609 23.8602 16.1466 24.448 17.0264C25.0359 17.9062 25.3497 18.9406 25.3497 19.9987C25.3497 21.4176 24.786 22.7784 23.7827 23.7817C22.7794 24.785 21.4186 25.3487 19.9997 25.3487ZM25.5601 15.6883C25.3129 15.6883 25.0712 15.615 24.8656 15.4776C24.6601 15.3403 24.4999 15.145 24.4052 14.9166C24.3106 14.6882 24.2859 14.4369 24.3341 14.1944C24.3823 13.9519 24.5014 13.7292 24.6762 13.5544C24.851 13.3796 25.0738 13.2605 25.3162 13.2123C25.5587 13.1641 25.81 13.1888 26.0384 13.2834C26.2669 13.378 26.4621 13.5383 26.5994 13.7438C26.7368 13.9494 26.8101 14.1911 26.8101 14.4383C26.8101 14.7698 26.6784 15.0877 26.444 15.3222C26.2096 15.5566 25.8916 15.6883 25.5601 15.6883Z" fill="white"/>
<path d="M20.0003 23.4732C21.9183 23.4732 23.4732 21.9183 23.4732 20.0003C23.4732 18.0822 21.9183 16.5273 20.0003 16.5273C18.0822 16.5273 16.5273 18.0822 16.5273 20.0003C16.5273 21.9183 18.0822 23.4732 20.0003 23.4732Z" fill="white"/>
<path d="M20 0C16.0444 0 12.1776 1.17298 8.88861 3.37061C5.59962 5.56824 3.03617 8.69181 1.52242 12.3463C0.00866565 16.0009 -0.387401 20.0222 0.384303 23.9018C1.15601 27.7814 3.06082 31.3451 5.85787 34.1421C8.65492 36.9392 12.2186 38.844 16.0982 39.6157C19.9778 40.3874 23.9992 39.9913 27.6537 38.4776C31.3082 36.9638 34.4318 34.4004 36.6294 31.1114C38.827 27.8224 40 23.9556 40 20C40 14.6957 37.8929 9.60859 34.1421 5.85786C30.3914 2.10714 25.3043 0 20 0V0ZM30.3542 24.2958C30.3363 25.1596 30.1722 26.014 29.8688 26.8229C29.6012 27.5147 29.1921 28.143 28.6676 28.6676C28.1431 29.1921 27.5148 29.6012 26.8229 29.8688C26.014 30.1722 25.1596 30.3363 24.2958 30.3542C23.1833 30.4042 22.8292 30.4167 20 30.4167C17.1708 30.4167 16.8167 30.4042 15.7042 30.3542C14.8404 30.3363 13.986 30.1722 13.1771 29.8688C12.4853 29.6012 11.857 29.1921 11.3325 28.6676C10.8079 28.143 10.3988 27.5147 10.1313 26.8229C9.82785 26.014 9.66372 25.1596 9.64584 24.2958C9.59584 23.1833 9.58334 22.8292 9.58334 20C9.58334 17.1708 9.59584 16.8167 9.64584 15.7042C9.66372 14.8404 9.82785 13.986 10.1313 13.1771C10.3988 12.4853 10.8079 11.857 11.3325 11.3324C11.857 10.8079 12.4853 10.3988 13.1771 10.1313C13.986 9.82784 14.8404 9.66371 15.7042 9.64583C16.8167 9.59583 17.1708 9.58333 20 9.58333C22.8292 9.58333 23.1833 9.59583 24.2958 9.64583C25.1596 9.66371 26.014 9.82784 26.8229 10.1313C27.5148 10.3988 28.1431 10.8079 28.6676 11.3324C29.1921 11.857 29.6012 12.4853 29.8688 13.1771C30.1722 13.986 30.3363 14.8404 30.3542 15.7042C30.4042 16.8167 30.4167 17.1708 30.4167 20C30.4167 22.8292 30.4042 23.1833 30.3542 24.2958Z" fill="white"/>
</g>
<defs>
<clipPath id="clip0_717_2323">
<rect width="40" height="40" fill="white"/>
</clipPath>
</defs>
</svg>
