<svg width="40" height="40" viewBox="0 0 40 40" fill="none" xmlns="http://www.w3.org/2000/svg">
<g clip-path="url(#clip0_717_2331)">
<path d="M20 0C8.95375 0 0 8.95375 0 20C0 31.0462 8.95375 40 20 40C31.045 40 40 31.045 40 20C40 8.955 31.0462 0 20 0ZM20.01 30.005C18.1567 30.0041 16.3311 29.5551 14.6888 28.6963L8.45375 31.5337L10.1988 24.5513C9.06104 22.7166 8.4568 20.6013 8.45375 18.4425C8.45375 12.0725 13.6213 6.90125 20.0113 6.90125C26.3775 6.90125 31.5462 12.0725 31.5462 18.4425C31.545 24.8337 26.3775 30.005 20.01 30.005Z" fill="white"/>
<path d="M20.0099 9.21485C14.9062 9.21485 10.7637 13.3386 10.7637 18.4436C10.7611 20.6628 11.5586 22.8085 13.0099 24.4873L11.7449 27.6948L14.5587 25.9061C16.1344 27.0764 18.0472 27.7041 20.0099 27.6948C25.1124 27.6948 29.2337 23.5498 29.2337 18.4448C29.2355 17.2328 28.9982 16.0322 28.5354 14.912C28.0725 13.7917 27.3933 12.7738 26.5365 11.9164C25.6797 11.0591 24.6622 10.3791 23.5423 9.91555C22.4224 9.45197 21.222 9.21386 20.0099 9.21485ZM25.8549 22.3036C25.7674 22.7611 24.6774 23.7436 23.8262 23.9398C21.9949 24.3536 19.3999 22.8923 17.7199 21.3448C16.0399 19.8186 14.3624 17.3523 14.6024 15.4973C14.7112 14.6461 15.6049 13.4686 16.0412 13.3161C16.2374 13.2723 16.5199 13.2723 16.7824 13.2723C17.0874 13.2936 17.3499 13.3161 17.4374 13.4898L18.4187 16.0423C18.4837 16.2386 18.3312 16.4561 18.1349 16.6973C17.8524 17.0248 17.8087 17.0461 17.5462 17.3961C17.4162 17.5698 17.5024 17.7886 17.5462 17.8748C17.8299 18.5511 18.4837 19.3148 19.0724 19.8598C19.6837 20.4061 20.4887 20.9948 21.1874 21.2336C21.2312 21.2336 21.4924 21.3423 21.6887 21.2986C21.8624 21.2773 21.9712 21.1461 22.1237 20.9498C22.4062 20.6011 22.5162 20.4698 22.7562 20.1423C22.9524 19.9023 23.1474 19.8148 23.3462 19.9236L25.5699 20.9498C25.7449 21.0373 25.8099 21.2548 25.8312 21.5611C25.8762 21.8248 25.8987 22.1086 25.8549 22.3036Z" fill="white"/>
</g>
<defs>
<clipPath id="clip0_717_2331">
<rect width="40" height="40" fill="white"/>
</clipPath>
</defs>
</svg>
